<?xml version="1.0" standalone="no"?>
<!DOCTYPE svg PUBLIC "-//W3C//DTD SVG 20010904//EN"
 "http://www.w3.org/TR/2001/REC-SVG-20010904/DTD/svg10.dtd">
<svg version="1.0" xmlns="http://www.w3.org/2000/svg"
 width="256.000000pt" height="256.000000pt" viewBox="0 0 256.000000 256.000000"
 preserveAspectRatio="xMidYMid meet">
<metadata>
Created by potrace 1.11, written by Peter Selinger 2001-2013
</metadata>
<g transform="translate(0.000000,256.000000) scale(0.100000,-0.100000)"
fill="#000000" stroke="none">
<path d="M1085 2546 c-277 -46 -518 -168 -710 -361 -105 -104 -169 -195 -240
-340 -103 -209 -143 -397 -132 -625 7 -136 23 -222 63 -345 149 -453 546 -787
1024 -860 467 -72 938 123 1219 505 89 120 174 298 212 445 29 111 32 133 33
300 1 193 -9 267 -60 421 -138 423 -508 752 -954 849 -102 22 -353 28 -455 11z
m-45 -573 c0 -5 -26 -16 -58 -27 -88 -28 -196 -80 -273 -132 -39 -25 -68 -48
-66 -50 1 -2 43 14 93 35 182 79 342 111 551 111 196 0 388 -42 546 -121 33
-16 62 -27 64 -25 7 6 -104 79 -172 113 -33 17 -92 43 -132 58 -118 46 -63 62
83 25 88 -23 178 -62 253 -111 43 -28 55 -44 87 -113 94 -206 164 -481 184
-724 l12 -133 -36 -44 c-86 -105 -228 -176 -398 -200 l-46 -6 -51 63 -50 62
87 42 c63 31 102 58 142 99 30 32 51 56 45 54 -5 -2 -47 -23 -93 -47 -334
-172 -710 -172 -1045 0 -45 24 -86 45 -92 47 -5 2 15 -22 45 -54 39 -40 79
-68 138 -97 73 -35 81 -42 70 -57 -83 -108 -86 -111 -136 -105 -166 21 -326
103 -407 208 l-27 35 12 133 c20 241 91 520 184 723 41 89 71 116 199 176 103
48 287 87 287 62z"/>
<path d="M946 1380 c-34 -11 -82 -54 -102 -92 -17 -32 -19 -130 -3 -161 66
-128 221 -137 288 -16 57 101 6 239 -100 269 -39 11 -44 11 -83 0z"/>
<path d="M1523 1379 c-51 -15 -99 -69 -113 -129 -43 -178 155 -302 273 -171
117 129 -1 348 -160 300z"/>
</g>
</svg>
