<?xml version="1.0" standalone="no"?>
<!DOCTYPE svg PUBLIC "-//W3C//DTD SVG 20010904//EN"
 "http://www.w3.org/TR/2001/REC-SVG-20010904/DTD/svg10.dtd">
<svg version="1.0" xmlns="http://www.w3.org/2000/svg"
 width="256.000000pt" height="256.000000pt" viewBox="0 0 256.000000 256.000000"
 preserveAspectRatio="xMidYMid meet">
<metadata>
Created by potrace 1.11, written by Peter Selinger 2001-2013
</metadata>
<g transform="translate(0.000000,256.000000) scale(0.100000,-0.100000)"
fill="#000000" stroke="none">
<path d="M1 1280 l1 -1279 1276 2 1277 2 2 1277 2 1277 -1279 0 -1280 0 1
-1279z m962 655 c-48 -18 -112 -44 -141 -59 -55 -28 -162 -94 -162 -100 0 -2
43 14 97 36 131 54 263 86 407 99 225 19 406 -9 634 -100 29 -12 51 -17 47
-11 -9 15 -129 80 -208 112 -40 16 -83 33 -96 39 -18 7 -21 12 -12 23 32 39
302 -47 417 -131 34 -26 48 -49 87 -139 102 -237 159 -477 173 -721 l7 -118
-73 -69 c-83 -78 -177 -128 -285 -151 -117 -25 -124 -23 -177 45 -50 62 -58
80 -34 80 30 0 155 72 206 120 63 58 61 59 -38 7 -99 -51 -258 -103 -361 -118
-228 -32 -499 17 -706 129 -30 17 -55 26 -55 22 0 -19 100 -93 172 -128 42
-20 77 -41 77 -45 1 -4 -20 -35 -46 -67 -54 -68 -61 -70 -178 -45 -106 22
-208 77 -287 155 l-68 66 0 60 c0 220 87 586 195 820 35 76 64 103 171 157
106 54 283 95 312 73 10 -7 -11 -18 -75 -41z m1187 -125 c0 -5 -2 -10 -4 -10
-3 0 -8 5 -11 10 -3 6 -1 10 4 10 6 0 11 -4 11 -10z m-317 -1537 c-7 -2 -19
-2 -25 0 -7 3 -2 5 12 5 14 0 19 -2 13 -5z m-1008 -23 c3 -5 1 -10 -4 -10 -6
0 -11 5 -11 10 0 6 2 10 4 10 3 0 8 -4 11 -10z m22 -47 c-3 -10 -5 -2 -5 17 0
19 2 27 5 18 2 -10 2 -26 0 -35z"/>
<path d="M909 1357 c-19 -12 -44 -42 -56 -67 -59 -116 15 -260 134 -260 92 0
153 61 160 162 3 53 0 70 -19 103 -49 83 -146 111 -219 62z"/>
<path d="M1491 1358 c-58 -39 -75 -71 -79 -146 -3 -58 0 -72 20 -102 73 -107
209 -108 272 0 42 72 18 196 -47 242 -46 33 -123 36 -166 6z"/>
</g>
</svg>
